<svg width="1440" height="902" viewBox="0 0 1440 902" fill="none" xmlns="http://www.w3.org/2000/svg">
<g filter="url(#filter0_d_36_7)">
<path d="M1004.99 131.105V41C1004.99 18.9086 987.08 1 964.989 1H519.97H40C17.9086 1 0 18.9086 0 41V682.442C0 704.533 17.9086 722.442 40 722.442H395.011C417.103 722.442 435.011 740.351 435.011 762.442V852C435.011 874.091 452.92 892 475.011 892H1400C1422.09 892 1440 874.091 1440 852V211.105C1440 189.014 1422.09 171.105 1400 171.105H1044.99C1022.9 171.105 1004.99 153.196 1004.99 131.105Z" stroke="black" shape-rendering="crispEdges"/>
</g>
<defs>
<filter id="filter0_d_36_7" x="-4.5" y="0.5" width="1449" height="901" filterUnits="userSpaceOnUse" color-interpolation-filters="sRGB">
<feFlood flood-opacity="0" result="BackgroundImageFix"/>
<feColorMatrix in="SourceAlpha" type="matrix" values="0 0 0 0 0 0 0 0 0 0 0 0 0 0 0 0 0 0 127 0" result="hardAlpha"/>
<feOffset dy="5"/>
<feGaussianBlur stdDeviation="2"/>
<feComposite in2="hardAlpha" operator="out"/>
<feColorMatrix type="matrix" values="0 0 0 0 0.431373 0 0 0 0 0.282353 0 0 0 0 0.211765 0 0 0 1 0"/>
<feBlend mode="normal" in2="BackgroundImageFix" result="effect1_dropShadow_36_7"/>
<feBlend mode="normal" in="SourceGraphic" in2="effect1_dropShadow_36_7" result="shape"/>
</filter>
</defs>
</svg>
